<svg width="18" height="22" viewBox="0 0 18 22" fill="none" xmlns="http://www.w3.org/2000/svg">
<path d="M5 0C5 0 3 2 3 4C3 5.5 4 6.5 5 7L4 8C2 8.5 0 10.5 0 13C0 16.3 2.7 19 6 19H7L9 22L11 19H12C15.3 19 18 16.3 18 13C18 10.5 16 8.5 14 8L13 7C14 6.5 15 5.5 15 4C15 2 13 0 13 0C13 0 12 2 12 3.5C12 4.5 12.5 5.5 13 6L9 8L5 6C5.5 5.5 6 4.5 6 3.5C6 2 5 0 5 0ZM6 10C7.1 10 8 10.9 8 12C8 13.1 7.1 14 6 14C4.9 14 4 13.1 4 12C4 10.9 4.9 10 6 10ZM12 10C13.1 10 14 10.9 14 12C14 13.1 13.1 14 12 14C10.9 14 10 13.1 10 12C10 10.9 10.9 10 12 10Z" fill="#607B96"/>
</svg>
