<svg width="24" height="16" viewBox="0 0 24 16" fill="none" xmlns="http://www.w3.org/2000/svg">
<path d="M12 0C8.8 0 6.8 1.6 6 4.8C7.2 3.2 8.6 2.6 10.2 3C11.1 3.2 11.7 3.9 12.4 4.6C13.5 5.7 14.7 7 17.4 7C20.6 7 22.6 5.4 23.4 2.2C22.2 3.8 20.8 4.4 19.2 4C18.3 3.8 17.7 3.1 17 2.4C15.9 1.3 14.7 0 12 0ZM6 9C2.8 9 0.8 10.6 0 13.8C1.2 12.2 2.6 11.6 4.2 12C5.1 12.2 5.7 12.9 6.4 13.6C7.5 14.7 8.7 16 11.4 16C14.6 16 16.6 14.4 17.4 11.2C16.2 12.8 14.8 13.4 13.2 13C12.3 12.8 11.7 12.1 11 11.4C9.9 10.3 8.7 9 6 9Z" fill="#607B96"/>
</svg>
